<?xml version="1.0" standalone="no"?>
<!DOCTYPE svg PUBLIC "-//W3C//DTD SVG 20010904//EN"
 "http://www.w3.org/TR/2001/REC-SVG-20010904/DTD/svg10.dtd">
<svg version="1.0" xmlns="http://www.w3.org/2000/svg"
 width="260.000000pt" height="260.000000pt" viewBox="0 0 260.000000 260.000000"
 preserveAspectRatio="xMidYMid meet">
<metadata>
Created by potrace 1.11, written by Peter Selinger 2001-2013
</metadata>
<g transform="translate(0.000000,260.000000) scale(0.100000,-0.100000)"
fill="#000000" stroke="none">
<path d="M0 1300 l0 -1300 1300 0 1300 0 0 1300 0 1300 -1300 0 -1300 0 0
-1300z m2115 1118 c14 -6 25 -17 25 -25 0 -7 5 -13 10 -13 6 0 10 -47 10 -120
0 -89 3 -120 13 -120 210 -3 225 -5 252 -30 22 -21 25 -30 20 -60 -11 -60 -34
-70 -167 -70 l-118 0 0 -117 c-1 -127 -6 -145 -53 -162 -35 -13 -71 2 -86 37
-7 15 -11 68 -10 131 l2 106 -120 5 c-117 5 -141 11 -165 45 -14 19 -8 61 12
82 25 28 56 33 173 30 l97 -2 0 118 c0 118 0 119 29 148 33 32 39 34 76 17z
m-750 -258 c-3 -5 0 -7 8 -4 7 2 35 -10 62 -28 139 -94 126 -290 -25 -368
-108 -55 -245 -20 -310 79 -27 41 -38 133 -21 183 15 45 73 105 124 129 45 20
173 27 162 9z m22 -685 c27 -16 51 -41 63 -65 20 -39 20 -55 18 -638 l-3 -597
-29 -38 c-17 -23 -35 -36 -43 -33 -8 3 -11 1 -8 -4 9 -15 -42 -31 -89 -29 -61
3 -98 21 -131 65 l-30 39 -3 585 c-2 378 1 597 7 620 12 40 54 89 91 107 44
21 109 15 157 -12z"/>
</g>
</svg>
